<svg width="48" height="48" viewBox="0 0 48 48" fill="none" xmlns="http://www.w3.org/2000/svg">
<path d="M17.407 14.8879C18.1189 14.176 18.5188 13.2104 18.5188 12.2037C18.5188 11.1969 18.1189 10.2314 17.407 9.51944L13.9993 6.11179C13.2874 5.39992 12.3219 5 11.3151 5C10.3083 5 9.34281 5.39992 8.63089 6.11179L8.63706 6.10561L6.89239 7.84981C-3.22369 17.9659 30.0339 51.2235 40.15 41.1074L41.8942 39.3632L41.888 39.3694C42.5999 38.6575 42.9998 37.6919 42.9998 36.6852C42.9998 35.6784 42.5999 34.7129 41.888 34.0009L38.4804 30.5933C37.7684 29.8814 36.8029 29.4815 35.7961 29.4815C34.7894 29.4815 33.8238 29.8814 33.1119 30.5933L31.7382 31.967C30.6334 33.0718 28.8759 33.1436 27.6679 32.1522C23.5017 28.7332 19.2666 24.4986 15.848 20.3323C14.8567 19.1244 14.9284 17.3669 16.0333 16.2621L17.407 14.8879V14.8879Z" fill="#0080FF"/>
</svg>
