<svg width="48" height="48" viewBox="0 0 48 48" fill="none" xmlns="http://www.w3.org/2000/svg">
<g id="Phone">
<g id="sound">
<path d="M24.5224 10.349C25.2866 9.58416 26.3781 9.75469 26.3781 9.75469C29.105 10.183 31.9544 11.5047 34.2252 13.7749C36.4955 16.0451 37.8176 18.8944 38.2453 21.6222C38.2453 21.6222 38.4152 22.7137 37.651 23.4778C36.8643 24.2645 35.5092 24.2983 34.6808 23.4699C34.1909 22.98 34.0865 22.2891 34.0865 22.2891C33.8339 20.9417 33.4062 18.9121 31.2471 16.753C29.0873 14.5939 27.0578 14.1662 25.7111 13.9136C25.7111 13.9136 25.0202 13.8092 24.5304 13.3193C23.7014 12.491 23.7357 11.1357 24.5224 10.349Z" fill="#0080FF"/>
<path d="M41.7133 23.4759C42.2627 19.8352 40.575 15.3424 36.6163 11.3836C32.6577 7.42498 28.165 5.73712 24.5242 6.28652C24.5242 6.28652 23.3714 6.47834 22.6184 5.72526C21.7709 4.87779 21.8191 3.53439 22.6124 2.74106C23.1228 2.23075 23.9518 2.12031 23.9518 2.12031C27.098 1.66677 33.4266 2.23794 39.5945 8.40545C45.7625 14.5729 46.3336 20.9022 45.8794 24.0484C45.8794 24.0484 45.7684 24.8781 45.2587 25.3878C44.4654 26.1805 43.1221 26.2294 42.2745 25.3818C41.5216 24.6288 41.7133 23.4759 41.7133 23.4759Z" fill="#0080FF"/>
</g>
<path id="phone" d="M29.2979 34.995C27.4969 36.8184 22.9096 33.0421 18.9464 29.089C14.9826 25.1351 11.1911 20.5548 12.9911 18.7321C15.5698 16.1214 17.8175 14.5091 13.2099 8.79577C8.60444 3.0796 5.56461 7.49259 3.06639 10.0218C0.182248 12.941 2.96501 23.7665 13.664 34.4383C24.3637 45.1081 35.1583 47.8214 38.0403 44.9036C40.5377 42.3745 44.9078 39.2871 39.1858 34.6995C33.4637 30.1142 31.8765 32.385 29.2979 34.995Z" fill="#0080FF"/>
</g>
</svg>
